<mxfile host="app.diagrams.net" agent="Mozilla/5.0 (Windows NT 10.0; Win64; x64; rv:135.0) Gecko/20100101 Firefox/135.0" version="26.0.4">
  <diagram name="PÃ¡xina-1" id="S9t1ZpWU_l9kjlxrb0YS">
    <mxGraphModel>
      <root>
        <mxCell id="0" />
        <mxCell id="1" parent="0" />
        <mxCell id="2" value="Environment" style="whiteSpace=wrap;strokeWidth=2;verticalAlign=top;" vertex="1" parent="1">
          <mxGeometry x="8" y="8" width="792" height="269" as="geometry" />
        </mxCell>
        <mxCell id="3" value="Internet" style="whiteSpace=wrap;strokeWidth=2;verticalAlign=top;" vertex="1" parent="2">
          <mxGeometry x="43" y="46" width="722" height="194" as="geometry" />
        </mxCell>
        <mxCell id="4" value="Users" style="whiteSpace=wrap;strokeWidth=2;verticalAlign=top;" vertex="1" parent="3">
          <mxGeometry x="58" y="43" width="622" height="124" as="geometry" />
        </mxCell>
        <mxCell id="5" value="Power Apps Application" style="fillColor=none;strokeColor=none;" vertex="1" parent="4">
          <mxGeometry x="71" y="43" width="228" height="54" as="geometry" />
        </mxCell>
        <mxCell id="6" value="SharePoint Data" style="rounded=1;arcSize=40;strokeWidth=2" vertex="1" parent="4">
          <mxGeometry x="424" y="43" width="144" height="54" as="geometry" />
        </mxCell>
        <mxCell id="7" value="" style="curved=1;startArrow=circle;startFill=0;endArrow=block;exitX=1;exitY=0.5;entryX=0;entryY=0.5;" edge="1" parent="4" source="5" target="6">
          <mxGeometry relative="1" as="geometry">
            <Array as="points" />
          </mxGeometry>
        </mxCell>
      </root>
    </mxGraphModel>
  </diagram>
</mxfile>
